<svg xmlns="http://www.w3.org/2000/svg" width="33.666" height="30.803" viewBox="0 0 33.666 30.803"><path d="M.266,7.185h2.1a.272.272,0,0,0,.271-.277A3.023,3.023,0,0,1,5.6,3.855a.272.272,0,0,0,.271-.277V1.425A.276.276,0,0,0,5.6,1.146,5.691,5.691,0,0,0,0,6.908.27.27,0,0,0,.266,7.185Z" transform="translate(0 -1.146)" fill="#ff4779"/><path d="M.266,11.822h2.1a.272.272,0,0,0,.271-.276V7.137a.275.275,0,0,0-.271-.277H.266A.271.271,0,0,0,0,7.137v4.409A.269.269,0,0,0,.266,11.822Z" transform="translate(0 0.277)" fill="#ff4779"/><path d="M.266,16.427h2.1a.271.271,0,0,0,.271-.276V11.744a.276.276,0,0,0-.271-.279H.266A.273.273,0,0,0,0,11.744v4.408A.269.269,0,0,0,.266,16.427Z" transform="translate(0 1.424)" fill="#ff4779"/><path d="M.266,21.128h2.1a.27.27,0,0,0,.271-.276v-4.4a.275.275,0,0,0-.271-.276H.266A.273.273,0,0,0,0,16.448v4.4A.268.268,0,0,0,.266,21.128Z" transform="translate(0 2.596)" fill="#ff4779"/><path d="M23.954,11.008a.269.269,0,0,0,.266-.276v-.6l-.947.874h.681Z" transform="translate(5.796 1.092)" fill="#ff4779"/><path d="M24.29,11.465H23.153l-1.229,1.28v3.406a.272.272,0,0,0,.269.276h2.1a.269.269,0,0,0,.266-.276V11.744A.274.274,0,0,0,24.29,11.465Z" transform="translate(5.46 1.424)" fill="#ff4779"/><path d="M24.287,16.172H22.2a.275.275,0,0,0-.271.276v4.4a.27.27,0,0,0,.271.276h2.091a.27.27,0,0,0,.269-.276v-4.4A.274.274,0,0,0,24.287,16.172Z" transform="translate(5.46 2.596)" fill="#ff4779"/><path d="M19.12,23.638H14.833a.277.277,0,0,0-.271.276v2.155a.276.276,0,0,0,.271.279H19.12a.273.273,0,0,0,.271-.279V23.914A.273.273,0,0,0,19.12,23.638Z" transform="translate(3.627 4.456)" fill="#ff4779"/><path d="M14.637,23.638H10.351a.275.275,0,0,0-.269.276v2.155a.274.274,0,0,0,.269.279h4.287a.273.273,0,0,0,.271-.279V23.914A.274.274,0,0,0,14.637,23.638Z" transform="translate(2.511 4.456)" fill="#ff4779"/><path d="M10.062,23.638H5.777a.275.275,0,0,0-.269.276v2.155a.274.274,0,0,0,.269.279h4.287a.271.271,0,0,0,.271-.279V23.914A.274.274,0,0,0,10.062,23.638Z" transform="translate(1.372 4.456)" fill="#ff4779"/><path d="M14.833,3.855H19.12a.272.272,0,0,0,.271-.277V1.425a.274.274,0,0,0-.271-.279H14.833a.277.277,0,0,0-.271.279V3.579A.275.275,0,0,0,14.833,3.855Z" transform="translate(3.627 -1.146)" fill="#ff4779"/><path d="M10.351,3.855h4.287a.272.272,0,0,0,.271-.277V1.425a.275.275,0,0,0-.271-.279H10.351a.275.275,0,0,0-.269.279V3.579A.273.273,0,0,0,10.351,3.855Z" transform="translate(2.511 -1.146)" fill="#ff4779"/><path d="M5.777,3.855h4.287a.271.271,0,0,0,.271-.277V1.425a.274.274,0,0,0-.272-.279H5.777a.274.274,0,0,0-.269.279V3.579A.272.272,0,0,0,5.777,3.855Z" transform="translate(1.372 -1.146)" fill="#ff4779"/><path d="M5.6,24.247A3.026,3.026,0,0,1,2.632,21.2a.271.271,0,0,0-.271-.274H.266A.267.267,0,0,0,0,21.194a5.687,5.687,0,0,0,5.6,5.759.273.273,0,0,0,.271-.279V24.524A.275.275,0,0,0,5.6,24.247Z" transform="translate(0 3.779)" fill="#ff4779"/><path d="M24.885,20.921H22.794a.271.271,0,0,0-.271.274,3.026,3.026,0,0,1-2.971,3.051.277.277,0,0,0-.269.279v2.152a.274.274,0,0,0,.269.279,5.684,5.684,0,0,0,5.6-5.759A.269.269,0,0,0,24.885,20.921Z" transform="translate(4.802 3.779)" fill="#ff4779"/><path d="M19.552,3.855c1.623,0,1.854.235,2.69,1.786l1.993-1.874c-.7-2.025-2.364-2.622-4.684-2.622a.275.275,0,0,0-.269.279V3.579A.273.273,0,0,0,19.552,3.855Z" transform="translate(4.802 -1.146)" fill="#ff4779"/><path d="M32.319,6.047,30.031,3.759a1.078,1.078,0,0,0-1.523,0L14.794,17.475,8.27,10.9a1.082,1.082,0,0,0-1.528,0L4.458,13.189a1.077,1.077,0,0,0,0,1.525l7.256,7.309.025.034,1.579,1.581.368.368h0l.338.337a1.081,1.081,0,0,0,1.525,0L32.319,7.572A1.081,1.081,0,0,0,32.319,6.047Z" transform="translate(1.031 -0.574)" fill="#ff4779"/></svg>